<mxfile host="app.diagrams.net" modified="2022-11-14T12:45:38.908Z" agent="5.0 (Macintosh; Intel Mac OS X 10_15_7) AppleWebKit/537.36 (KHTML, like Gecko) Chrome/107.0.0.0 Safari/537.36" etag="TMw6c-30j0xT0BXd4Q43" version="20.5.2" type="github">
  <diagram id="JsTCVBs2s0rYQZCpeuup" name="Page-1">
    <mxGraphModel dx="542" dy="474" grid="1" gridSize="10" guides="1" tooltips="1" connect="1" arrows="1" fold="1" page="1" pageScale="1" pageWidth="850" pageHeight="1100" math="0" shadow="0">
      <root>
        <mxCell id="0" />
        <mxCell id="1" parent="0" />
        <mxCell id="VcMnWwyvt8n1EcB4j0yQ-1" value="" style="rounded=0;whiteSpace=wrap;html=1;" vertex="1" parent="1">
          <mxGeometry x="140" y="60" width="490" height="120" as="geometry" />
        </mxCell>
        <mxCell id="VcMnWwyvt8n1EcB4j0yQ-2" value="" style="rounded=0;whiteSpace=wrap;html=1;" vertex="1" parent="1">
          <mxGeometry x="140" y="340" width="230" height="360" as="geometry" />
        </mxCell>
        <mxCell id="VcMnWwyvt8n1EcB4j0yQ-5" value="" style="rounded=0;whiteSpace=wrap;html=1;" vertex="1" parent="1">
          <mxGeometry x="400" y="340" width="230" height="360" as="geometry" />
        </mxCell>
        <mxCell id="VcMnWwyvt8n1EcB4j0yQ-9" value="存储" style="text;html=1;strokeColor=none;fillColor=none;align=center;verticalAlign=middle;whiteSpace=wrap;rounded=0;" vertex="1" parent="1">
          <mxGeometry x="485" y="340" width="60" height="30" as="geometry" />
        </mxCell>
        <mxCell id="VcMnWwyvt8n1EcB4j0yQ-10" value="" style="rounded=0;whiteSpace=wrap;html=1;" vertex="1" parent="1">
          <mxGeometry x="140" y="200" width="490" height="120" as="geometry" />
        </mxCell>
        <mxCell id="VcMnWwyvt8n1EcB4j0yQ-8" value="Web后台" style="text;html=1;strokeColor=none;fillColor=none;align=center;verticalAlign=middle;whiteSpace=wrap;rounded=0;" vertex="1" parent="1">
          <mxGeometry x="365" y="290" width="60" height="30" as="geometry" />
        </mxCell>
        <mxCell id="VcMnWwyvt8n1EcB4j0yQ-11" value="Web前端" style="text;html=1;strokeColor=none;fillColor=none;align=center;verticalAlign=middle;whiteSpace=wrap;rounded=0;" vertex="1" parent="1">
          <mxGeometry x="365" y="150" width="60" height="30" as="geometry" />
        </mxCell>
        <mxCell id="VcMnWwyvt8n1EcB4j0yQ-12" value="RocksDB" style="shape=datastore;whiteSpace=wrap;html=1;" vertex="1" parent="1">
          <mxGeometry x="472.5" y="510" width="85" height="60" as="geometry" />
        </mxCell>
        <mxCell id="VcMnWwyvt8n1EcB4j0yQ-13" value="模型服务" style="text;html=1;strokeColor=none;fillColor=none;align=center;verticalAlign=middle;whiteSpace=wrap;rounded=0;" vertex="1" parent="1">
          <mxGeometry x="225" y="340" width="60" height="30" as="geometry" />
        </mxCell>
        <mxCell id="VcMnWwyvt8n1EcB4j0yQ-14" value="公有云&lt;br&gt;NAS文件存储" style="shape=datastore;whiteSpace=wrap;html=1;" vertex="1" parent="1">
          <mxGeometry x="472.5" y="370" width="85" height="60" as="geometry" />
        </mxCell>
        <mxCell id="VcMnWwyvt8n1EcB4j0yQ-15" value="" style="verticalLabelPosition=bottom;verticalAlign=top;html=1;shape=mxgraph.basic.rect;fillColor2=none;strokeWidth=1;size=20;indent=5;" vertex="1" parent="1">
          <mxGeometry x="427.5" y="440" width="175" height="60" as="geometry" />
        </mxCell>
        <mxCell id="VcMnWwyvt8n1EcB4j0yQ-16" value="" style="verticalLabelPosition=bottom;verticalAlign=top;html=1;shape=mxgraph.basic.rect;fillColor2=none;strokeWidth=1;size=20;indent=5;" vertex="1" parent="1">
          <mxGeometry x="427.5" y="580" width="175" height="110" as="geometry" />
        </mxCell>
        <mxCell id="VcMnWwyvt8n1EcB4j0yQ-17" value="原始图片" style="rounded=1;whiteSpace=wrap;html=1;" vertex="1" parent="1">
          <mxGeometry x="440" y="450" width="70" height="40" as="geometry" />
        </mxCell>
        <mxCell id="VcMnWwyvt8n1EcB4j0yQ-18" value="模型产物" style="rounded=1;whiteSpace=wrap;html=1;" vertex="1" parent="1">
          <mxGeometry x="520" y="450" width="70" height="40" as="geometry" />
        </mxCell>
        <mxCell id="VcMnWwyvt8n1EcB4j0yQ-19" value="特征信息" style="rounded=1;whiteSpace=wrap;html=1;" vertex="1" parent="1">
          <mxGeometry x="440" y="590" width="70" height="40" as="geometry" />
        </mxCell>
        <mxCell id="VcMnWwyvt8n1EcB4j0yQ-20" value="Metadata&lt;br&gt;信息" style="rounded=1;whiteSpace=wrap;html=1;" vertex="1" parent="1">
          <mxGeometry x="520" y="590" width="70" height="40" as="geometry" />
        </mxCell>
        <mxCell id="VcMnWwyvt8n1EcB4j0yQ-21" value="推理结果" style="rounded=1;whiteSpace=wrap;html=1;" vertex="1" parent="1">
          <mxGeometry x="440" y="640" width="70" height="40" as="geometry" />
        </mxCell>
        <mxCell id="VcMnWwyvt8n1EcB4j0yQ-22" value="历史任务" style="rounded=1;whiteSpace=wrap;html=1;" vertex="1" parent="1">
          <mxGeometry x="520" y="640" width="70" height="40" as="geometry" />
        </mxCell>
        <mxCell id="VcMnWwyvt8n1EcB4j0yQ-23" value="" style="verticalLabelPosition=bottom;verticalAlign=top;html=1;shape=mxgraph.basic.rect;fillColor2=none;strokeWidth=1;size=20;indent=5;" vertex="1" parent="1">
          <mxGeometry x="167.5" y="390" width="175" height="30" as="geometry" />
        </mxCell>
        <mxCell id="VcMnWwyvt8n1EcB4j0yQ-26" value="图像分割模型" style="text;html=1;strokeColor=none;fillColor=none;align=center;verticalAlign=middle;whiteSpace=wrap;rounded=0;" vertex="1" parent="1">
          <mxGeometry x="207.5" y="390" width="95" height="30" as="geometry" />
        </mxCell>
        <mxCell id="VcMnWwyvt8n1EcB4j0yQ-28" value="" style="verticalLabelPosition=bottom;verticalAlign=top;html=1;shape=mxgraph.basic.rect;fillColor2=none;strokeWidth=1;size=20;indent=5;" vertex="1" parent="1">
          <mxGeometry x="167.5" y="440" width="175" height="30" as="geometry" />
        </mxCell>
        <mxCell id="VcMnWwyvt8n1EcB4j0yQ-29" value="图像去噪模型" style="text;html=1;strokeColor=none;fillColor=none;align=center;verticalAlign=middle;whiteSpace=wrap;rounded=0;" vertex="1" parent="1">
          <mxGeometry x="207.5" y="440" width="95" height="30" as="geometry" />
        </mxCell>
        <mxCell id="VcMnWwyvt8n1EcB4j0yQ-30" value="" style="verticalLabelPosition=bottom;verticalAlign=top;html=1;shape=mxgraph.basic.rect;fillColor2=none;strokeWidth=1;size=20;indent=5;" vertex="1" parent="1">
          <mxGeometry x="167.5" y="490" width="175" height="50" as="geometry" />
        </mxCell>
        <mxCell id="VcMnWwyvt8n1EcB4j0yQ-31" value="灰度共生矩阵&lt;br&gt;特征生成服务" style="text;html=1;strokeColor=none;fillColor=none;align=center;verticalAlign=middle;whiteSpace=wrap;rounded=0;" vertex="1" parent="1">
          <mxGeometry x="207.5" y="500" width="95" height="30" as="geometry" />
        </mxCell>
        <mxCell id="VcMnWwyvt8n1EcB4j0yQ-34" value="" style="verticalLabelPosition=bottom;verticalAlign=top;html=1;shape=mxgraph.basic.rect;fillColor2=none;strokeWidth=1;size=20;indent=5;" vertex="1" parent="1">
          <mxGeometry x="167.5" y="560" width="175" height="50" as="geometry" />
        </mxCell>
        <mxCell id="VcMnWwyvt8n1EcB4j0yQ-35" value="图像特征&lt;br&gt;生成服务" style="text;html=1;strokeColor=none;fillColor=none;align=center;verticalAlign=middle;whiteSpace=wrap;rounded=0;" vertex="1" parent="1">
          <mxGeometry x="207.5" y="570" width="92.5" height="30" as="geometry" />
        </mxCell>
        <mxCell id="VcMnWwyvt8n1EcB4j0yQ-36" value="" style="verticalLabelPosition=bottom;verticalAlign=top;html=1;shape=mxgraph.basic.rect;fillColor2=none;strokeWidth=1;size=20;indent=5;" vertex="1" parent="1">
          <mxGeometry x="166.25" y="630" width="175" height="50" as="geometry" />
        </mxCell>
        <mxCell id="VcMnWwyvt8n1EcB4j0yQ-37" value="图像源取证分类推理服务" style="text;html=1;strokeColor=none;fillColor=none;align=center;verticalAlign=middle;whiteSpace=wrap;rounded=0;" vertex="1" parent="1">
          <mxGeometry x="207.5" y="640" width="95" height="30" as="geometry" />
        </mxCell>
        <mxCell id="VcMnWwyvt8n1EcB4j0yQ-39" value="" style="verticalLabelPosition=bottom;verticalAlign=top;html=1;shape=mxgraph.basic.rect;fillColor2=none;strokeWidth=1;size=20;indent=5;" vertex="1" parent="1">
          <mxGeometry x="150" y="220" width="80" height="70" as="geometry" />
        </mxCell>
        <mxCell id="VcMnWwyvt8n1EcB4j0yQ-40" value="任务管理模块" style="text;html=1;strokeColor=none;fillColor=none;align=center;verticalAlign=middle;whiteSpace=wrap;rounded=0;" vertex="1" parent="1">
          <mxGeometry x="159.38" y="240" width="61.25" height="30" as="geometry" />
        </mxCell>
        <mxCell id="VcMnWwyvt8n1EcB4j0yQ-41" value="" style="verticalLabelPosition=bottom;verticalAlign=top;html=1;shape=mxgraph.basic.rect;fillColor2=none;strokeWidth=1;size=20;indent=5;" vertex="1" parent="1">
          <mxGeometry x="241.25" y="220" width="78.75" height="70" as="geometry" />
        </mxCell>
        <mxCell id="VcMnWwyvt8n1EcB4j0yQ-43" value="图像特征提取模块" style="text;html=1;strokeColor=none;fillColor=none;align=center;verticalAlign=middle;whiteSpace=wrap;rounded=0;" vertex="1" parent="1">
          <mxGeometry x="255" y="240" width="55" height="30" as="geometry" />
        </mxCell>
        <mxCell id="VcMnWwyvt8n1EcB4j0yQ-45" value="" style="verticalLabelPosition=bottom;verticalAlign=top;html=1;shape=mxgraph.basic.rect;fillColor2=none;strokeWidth=1;size=20;indent=5;" vertex="1" parent="1">
          <mxGeometry x="330" y="220" width="90" height="70" as="geometry" />
        </mxCell>
        <mxCell id="VcMnWwyvt8n1EcB4j0yQ-46" value="文件管理&lt;br&gt;模块" style="text;html=1;strokeColor=none;fillColor=none;align=center;verticalAlign=middle;whiteSpace=wrap;rounded=0;" vertex="1" parent="1">
          <mxGeometry x="343.75" y="240" width="62.5" height="30" as="geometry" />
        </mxCell>
        <mxCell id="VcMnWwyvt8n1EcB4j0yQ-47" value="" style="verticalLabelPosition=bottom;verticalAlign=top;html=1;shape=mxgraph.basic.rect;fillColor2=none;strokeWidth=1;size=20;indent=5;" vertex="1" parent="1">
          <mxGeometry x="430" y="220" width="90" height="70" as="geometry" />
        </mxCell>
        <mxCell id="VcMnWwyvt8n1EcB4j0yQ-48" value="Metadata管理模块" style="text;html=1;strokeColor=none;fillColor=none;align=center;verticalAlign=middle;whiteSpace=wrap;rounded=0;" vertex="1" parent="1">
          <mxGeometry x="443.75" y="240" width="62.5" height="30" as="geometry" />
        </mxCell>
        <mxCell id="VcMnWwyvt8n1EcB4j0yQ-50" value="" style="verticalLabelPosition=bottom;verticalAlign=top;html=1;shape=mxgraph.basic.rect;fillColor2=none;strokeWidth=1;size=20;indent=5;" vertex="1" parent="1">
          <mxGeometry x="531.25" y="220" width="90" height="70" as="geometry" />
        </mxCell>
        <mxCell id="VcMnWwyvt8n1EcB4j0yQ-51" value="RESTful API" style="text;html=1;strokeColor=none;fillColor=none;align=center;verticalAlign=middle;whiteSpace=wrap;rounded=0;" vertex="1" parent="1">
          <mxGeometry x="545" y="240" width="62.5" height="30" as="geometry" />
        </mxCell>
        <mxCell id="VcMnWwyvt8n1EcB4j0yQ-52" value="" style="verticalLabelPosition=bottom;verticalAlign=top;html=1;shape=mxgraph.basic.rect;fillColor2=none;strokeWidth=1;size=20;indent=5;" vertex="1" parent="1">
          <mxGeometry x="150" y="80" width="110" height="70" as="geometry" />
        </mxCell>
        <mxCell id="VcMnWwyvt8n1EcB4j0yQ-53" value="" style="verticalLabelPosition=bottom;verticalAlign=top;html=1;shape=mxgraph.basic.rect;fillColor2=none;strokeWidth=1;size=20;indent=5;" vertex="1" parent="1">
          <mxGeometry x="270" y="80" width="110" height="70" as="geometry" />
        </mxCell>
        <mxCell id="VcMnWwyvt8n1EcB4j0yQ-54" value="" style="verticalLabelPosition=bottom;verticalAlign=top;html=1;shape=mxgraph.basic.rect;fillColor2=none;strokeWidth=1;size=20;indent=5;" vertex="1" parent="1">
          <mxGeometry x="390" y="80" width="110" height="70" as="geometry" />
        </mxCell>
        <mxCell id="VcMnWwyvt8n1EcB4j0yQ-55" value="" style="verticalLabelPosition=bottom;verticalAlign=top;html=1;shape=mxgraph.basic.rect;fillColor2=none;strokeWidth=1;size=20;indent=5;" vertex="1" parent="1">
          <mxGeometry x="511.25" y="80" width="110" height="70" as="geometry" />
        </mxCell>
        <mxCell id="VcMnWwyvt8n1EcB4j0yQ-56" value="图像上传" style="text;html=1;strokeColor=none;fillColor=none;align=center;verticalAlign=middle;whiteSpace=wrap;rounded=0;" vertex="1" parent="1">
          <mxGeometry x="174.38" y="100" width="61.25" height="30" as="geometry" />
        </mxCell>
        <mxCell id="VcMnWwyvt8n1EcB4j0yQ-57" value="任务流程管理" style="text;html=1;strokeColor=none;fillColor=none;align=center;verticalAlign=middle;whiteSpace=wrap;rounded=0;" vertex="1" parent="1">
          <mxGeometry x="294.37" y="100" width="61.25" height="30" as="geometry" />
        </mxCell>
        <mxCell id="VcMnWwyvt8n1EcB4j0yQ-58" value="源取证&lt;br&gt;结果分析" style="text;html=1;strokeColor=none;fillColor=none;align=center;verticalAlign=middle;whiteSpace=wrap;rounded=0;" vertex="1" parent="1">
          <mxGeometry x="412.18" y="100" width="65.63" height="30" as="geometry" />
        </mxCell>
        <mxCell id="VcMnWwyvt8n1EcB4j0yQ-59" value="历史任务管理" style="text;html=1;strokeColor=none;fillColor=none;align=center;verticalAlign=middle;whiteSpace=wrap;rounded=0;" vertex="1" parent="1">
          <mxGeometry x="535.62" y="100" width="61.25" height="30" as="geometry" />
        </mxCell>
      </root>
    </mxGraphModel>
  </diagram>
</mxfile>
